#!OML:ASF F:\VICON\USERDATA\INSTALL\rory3\rory3.ASF
:FULLY-SPECIFIED
:DEGREES
80
root 1.0344099500615482 18.25154358240834 41.07879406275613 3.0362884820616105 -1.09254828861624 1.4373002634341114
lfemur -11.431485208856014 1.892665973470608 -22.182095487762705
ltibia 65.3050031744434
lfoot 5.026625704226519 -11.088184429083663
ltoes -4.649707050334026
rfemur -24.476928991843288 3.869681658862967 25.85639479868925
rtibia 42.27305427856203
rfoot -3.52771047625738 -4.760320128825864
rtoes 0.42678998101964516
lowerback 11.645207996361902 -0.8184932194750394 -1.0323887601414568
upperback -1.0576644371103063 -0.64911338959952 1.8427068836525788
thorax -8.250246484993632 -0.15939267173655258 2.3315726165438186
lowerneck -20.106223029746708 -3.3323147756520384 -1.9284090801115519
upperneck 10.219644372049 -4.829472585702075 2.888355257775225
head 6.465467794956145 -2.091143894949017 0.8102901126947266
lclavicle 4.287488207731266e-15 5.75886165290891e-17
lhumerus -41.17514026534566 -14.24836772679188 96.50362215223237
lradius 109.08123864597927
lwrist 28.665122899595165
lhand -29.27013976821229 2.980021133629569
lfingers 7.125019999999998
lthumb -3.1260590166182443 32.58110790205499
rclavicle 4.28752700038245e-15 5.761646213958064e-17
rhumerus -53.30242170961931 12.552039502291054 -99.61928476182133
rradius 105.65339663519902
rwrist -9.498823372054522
rhand -20.539343090474905 36.46713121917034
rfingers 7.125019999999998
rthumb 5.975518657050073 6.700435610071358
81
root 1.0395536893666135 18.1959468954995 41.20614232254149 2.6934655455383822 -1.278512201127803 1.51711675577915
lfemur -11.674950523708588 2.5946413111187674 -21.28214049116305
ltibia 69.76781188814148
lfoot 4.44512767583254 -10.749476541314387
ltoes -4.112292959347965
rfemur -25.147343760725676 3.7152120136645217 25.948038692495306
rtibia 43.04324774468476
rfoot -2.666774096044567 -4.359968284395789
rtoes 0.07918472564960655
lowerback 11.86032468816479 -0.7418715555902247 -0.8532029513063317
upperback -0.912295700464022 -0.4828786559325322 1.825973602555564
thorax -8.25912106016351 -0.15588023151203723 2.1438797095436843
lowerneck -20.06936851196741 -3.3078455461531386 -1.845288082538222
upperneck 10.16823557510238 -4.83958544755448 2.903746110212101
head 6.415781494905186 -2.130467249628258 0.7861823590391396
lclavicle 4.287488207731266e-15 5.75886165290891e-17
lhumerus -42.58532569396135 -14.089432886995073 96.50381366814865
lradius 109.41083143404768
lwrist 28.486445424309032
lhand -29.235201044559915 3.0093993319969785
lfingers 7.125019999999998
lthumb -2.9983599163888828 32.62399416282009
rclavicle 4.28752700038245e-15 5.761646213958064e-17
rhumerus -53.2206539571616 12.28411539599034 -99.36948560295033
rradius 105.67455522814986
rwrist -9.45107901902624
rhand -20.492036116568787 36.52708247832739
rfingers 7.125019999999998
rthumb 5.994040678528062 6.713947301234199
82
root 1.0495388106809307 18.141483062269753 42.542777856258105 2.365987531582972 -1.31241637218566 1.6751921464575537
lfemur -10.926631099720758 3.2200320111870684 -20.597284817465564
ltibia 73.52222792665394
lfoot 4.418546813180285 -10.356150912516833
ltoes -3.9640070582951585
rfemur -23.829619889095973 3.9864386025660417 26.55092687373697
rtibia 44.05940802829588
rfoot -2.6381470239972478 -4.338961285835344
rtoes 0.7620600733583855
lowerback 12.087325069259178 -0.6481851455567882 -0.7410330818071853
upperback -0.7606655599489094 -0.25500006703642564 1.8086937605770075
thorax -8.163308351384309 0.03456228702332542 2.2703346784227896
lowerneck -20.194202328471032 -3.4229612425990683 -1.8282683558769584
upperneck 9.933445160259799 -4.974806716689943 2.8113653851307308
head 6.407499411606569 -2.145289267286998 0.7745694068125047
lclavicle 4.287488207731266e-15 5.75886165290891e-17
lhumerus -43.826882710154365 -13.965547209489236 96.51639664852864
lradius 109.78428802905314
lwrist 28.469351011647998
lhand -29.19306400692189 3.097460678241257
lfingers 7.125019999999998
lthumb -2.9080694687039603 32.49707883482259
rclavicle 4.28752700038245e-15 5.761646213958064e-17
rhumerus -52.881821847170926 12.078572177339439 -99.15961375849872
rradius 105.69630385475536
rwrist -9.363598802242771
rhand -20.51458352236286 36.536891645848776
rfingers 7.125019999999998
rthumb 5.990712888962695 6.6991443474953964
83
root 0.9992079660532049 17.99802375104213 41.00729108298539 1.7829988093936453 -1.8641985120208313 1.4952061347348913
lfemur -11.654460469945825 3.5969639996898883 -19.928934206013324
ltibia 76.73813309104771
lfoot 4.846735819818675 -9.754697472248251
ltoes -4.004519093720459
rfemur -24.3759965615707 4.227856602553594 26.73604767613453
rtibia 45.4658085070529
rfoot -2.6297749026366906 -4.46048195575167
rtoes 0.8306492482920923
lowerback 12.332474246941933 -0.5200905294729599 -0.6165891393982468
upperback -0.5798171381350263 0.11399768813025823 1.8426636576921438
thorax -8.227883750442013 0.11065078563389408 2.017801140935623
lowerneck -20.222716496643674 -3.470581925103458 -1.760984372709682
upperneck 9.961186335077997 -5.014517524292522 2.8355486324817463
head 6.397792411254417 -2.173917816739668 0.7552971227538745
lclavicle 4.287488207731266e-15 5.75886165290891e-17
lhumerus -44.3600106805599 -13.587310223578752 96.72719250303466
lradius 110.22505018779438
lwrist 28.376551027941364
lhand -29.177534701203204 3.0875234828247
lfingers 7.125019999999998
lthumb -2.7430534544791656 32.57512916548067
rclavicle 4.28752700038245e-15 5.761646213958064e-17
rhumerus -52.27576517344859 11.93966426545916 -98.96320193380208
rradius 105.67753716914828
rwrist -9.330086161801253
rhand -20.507862109903005 36.53705759804793
rfingers 7.125019999999998
rthumb 5.970799922557996 6.685412094711832
84
root 0.9666994460247547 17.887348778899632 41.4020927116846 1.4037989754105262 -2.019669846094301 1.4349778326939862
lfemur -14.278399423641517 3.5186076083056737 -20.089949416008057
ltibia 79.35428585363492
lfoot 3.783211593812248 -10.412851303218542
ltoes -4.176773622351556
rfemur -23.516675816364874 4.64917271529782 27.50925000959285
rtibia 47.10515734745661
rfoot -2.9037701883645486 -4.736209177012915
rtoes 0.5864891590569341
lowerback 12.568434039454118 -0.39645010082701826 -0.5126588457088053
upperback -0.41059893802818065 0.5171428019535842 1.9023790168362016
thorax -8.215178857289537 0.2974301659277526 1.9815266597376973
lowerneck -20.281266215856714 -3.582347021840807 -1.7409961743855036
upperneck 9.770874275303852 -5.165693158753163 2.7835880773281616
head 6.39481745278288 -2.199001806263539 0.7435657915071396
lclavicle 4.287488207731266e-15 5.75886165290891e-17
lhumerus -45.07252779473611 -13.454146742118386 96.82588613920322
lradius 110.63335852686444
lwrist 28.276570053180713
lhand -29.16024913605258 3.2094276077537796
lfingers 7.125019999999998
lthumb -2.73355927731528 32.47250239719636
rclavicle 4.28752700038245e-15 5.761646213958064e-17
rhumerus -51.55465224893791 11.811396062797854 -98.77901191390124
rradius 105.67621887964701
rwrist -9.480357636304252
rhand -20.468024877977538 36.59691249369908
rfingers 7.125019999999998
rthumb 5.941135029696354 6.627196399843548
